<svg xmlns="http://www.w3.org/2000/svg" width="61" height="65.478" viewBox="0 0 61 65.478"><defs><style>.a{fill:#fff;stroke:rgba(0,0,0,0);stroke-miterlimit:10;}</style></defs><g transform="translate(0.5 0.5)"><path class="a" d="M22.789,43.128A22.817,22.817,0,0,1,0,20.334V1.807A1.81,1.81,0,0,1,1.809,0H47.338C52.4,0,56.792,2.975,59.1,7.958a11.639,11.639,0,0,1,.9,4.706A12.688,12.688,0,0,1,47.338,25.349H45.059l-.3,1.059A22.874,22.874,0,0,1,22.789,43.128ZM3.618,3.618V20.334a19.181,19.181,0,0,0,38.361,0V3.618Zm41.979,0V21.729h1.741a9.056,9.056,0,0,0,0-18.111Z" transform="translate(0 21.35)"/><path class="a" d="M2.847,17H2.512A1.826,1.826,0,0,1,.924,16.1,1.852,1.852,0,0,1,.9,14.241c.1-.192.208-.365.3-.518l.025-.04a3.323,3.323,0,0,0,.65-2.073,3.319,3.319,0,0,0-.642-2.062l-.007-.011A7.213,7.213,0,0,1,0,5.4,7.207,7.207,0,0,1,1.223,1.263L1.4.961A1.875,1.875,0,0,1,3.025,0H3.36A1.836,1.836,0,0,1,4.953.911a1.852,1.852,0,0,1,.026,1.852c-.117.206-.229.394-.333.561A3.357,3.357,0,0,0,4,5.4a3.316,3.316,0,0,0,.638,2.054l.011.019A7.2,7.2,0,0,1,5.872,11.61a7.2,7.2,0,0,1-1.226,4.138l-.18.3A1.861,1.861,0,0,1,2.847,17Z" transform="translate(7 0)"/><path class="a" d="M2.847,17H2.514a1.827,1.827,0,0,1-1.593-.911A1.852,1.852,0,0,1,.9,14.241c.114-.205.225-.39.319-.543a3.373,3.373,0,0,0,.661-2.089,3.311,3.311,0,0,0-.652-2.073A7.192,7.192,0,0,1,0,5.4a7.232,7.232,0,0,1,1.224-4.14l.18-.3A1.865,1.865,0,0,1,3.025,0H3.36A1.834,1.834,0,0,1,4.951.911a1.847,1.847,0,0,1,.026,1.852c-.1.185-.2.353-.3.506A3.428,3.428,0,0,0,4,5.4a3.306,3.306,0,0,0,.65,2.071,7.218,7.218,0,0,1,1.226,4.14,7.223,7.223,0,0,1-1.223,4.133l-.183.307A1.872,1.872,0,0,1,2.847,17Z" transform="translate(19.515 0)"/><path class="a" d="M2.847,17H2.514A1.859,1.859,0,0,1,.9,14.241c.1-.19.208-.361.3-.513l.028-.046a3.343,3.343,0,0,0,.65-2.073,3.3,3.3,0,0,0-.65-2.069A7.24,7.24,0,0,1,0,5.4,7.23,7.23,0,0,1,1.224,1.261l.18-.3A1.874,1.874,0,0,1,3.03,0h.33A1.836,1.836,0,0,1,4.953.911a1.852,1.852,0,0,1,.026,1.852c-.106.194-.212.37-.305.526l-.012.02A3.349,3.349,0,0,0,4,5.4,3.311,3.311,0,0,0,4.65,7.471,7.192,7.192,0,0,1,5.874,11.61a7.223,7.223,0,0,1-1.223,4.133l-.181.307A1.874,1.874,0,0,1,2.847,17Z" transform="translate(32.029 0)"/></g></svg>