<svg xmlns="http://www.w3.org/2000/svg" width="60" height="43.783" viewBox="0 0 60 43.783"><defs><style>.a{fill:#fff;}</style></defs><g transform="translate(1043.988 -3565.565)"><path class="a" d="M-1010.58,3579.435c-1.554-4.972-4.956-8.066-9.842-8.952-5.11-.926-9.484.884-12.646,5.234a11.69,11.69,0,0,0-2.1,5.532,12.509,12.509,0,0,0,10.09,13.92c.31.06.626.1.94.142l.478.06,2.1-.014a12.994,12.994,0,0,0,2.232-.418,12.448,12.448,0,0,0,9.008-9.834c.06-.286.1-.574.134-.864l.05-2.39,0-.086A12.5,12.5,0,0,0-1010.58,3579.435Zm-12.116-6.164h.01a9.605,9.605,0,0,1,5.362,1.608l-13.3,13.3a9.526,9.526,0,0,1-1.62-5.354,9.492,9.492,0,0,1,2.78-6.77A9.5,9.5,0,0,1-1022.7,3573.271Zm9.548,9.55a9.511,9.511,0,0,1-9.548,9.552,9.72,9.72,0,0,1-5.38-1.65l13.3-13.3A9.606,9.606,0,0,1-1013.148,3582.821Z" transform="translate(8.718 4.682)"/><path class="a" d="M-1032.194,3605.584a25.587,25.587,0,0,1-7.508-18.156,25.593,25.593,0,0,1,7.508-18.156,2.142,2.142,0,0,0,.052-3.03,2.145,2.145,0,0,0-1.618-.652,2.147,2.147,0,0,0-1.464.652,29.933,29.933,0,0,0-8.764,21.186,29.931,29.931,0,0,0,8.764,21.186,2.143,2.143,0,0,0,3.03.062,2.143,2.143,0,0,0,.062-3.03Z" transform="translate(0 0.025)"/><path class="a" d="M-1016.55,3566.217a2.149,2.149,0,0,0-1.54-.652,2.144,2.144,0,0,0-2.144,2.142,2.138,2.138,0,0,0,.654,1.54,25.61,25.61,0,0,1,7.558,18.206,25.607,25.607,0,0,1-7.558,18.206,2.142,2.142,0,0,0-.062,3.03,2.142,2.142,0,0,0,3.03.062l.062-.062a29.923,29.923,0,0,0,8.814-21.236A29.927,29.927,0,0,0-1016.55,3566.217Z" transform="translate(23.748 0)"/></g></svg>