<svg xmlns="http://www.w3.org/2000/svg" width="47.805" height="43.744" viewBox="0 0 47.805 43.744"><defs><style>.a{fill:#fff;stroke:rgba(0,0,0,0);stroke-miterlimit:10;}</style></defs><g transform="translate(-5874.365 1159.129)"><path class="a" d="M660.023-2303.68c-2.256-4.991-3.02-8.818-3.023-11.691,0-4.519,1.877-6.681,2.809-7.305l2.565-1.535a1.159,1.159,0,0,1,1.547.565l3.568,7.65v0a1.178,1.178,0,0,1,.112.5,1.156,1.156,0,0,1-.676,1.061v0l-2.793,1.046a1.561,1.561,0,0,0-.75,1.484,8.237,8.237,0,0,0,.558,2.48l3.043,6.518c1.539,2.579,2.428,3.823,3.605,3.426l2.522-1.633a1.161,1.161,0,0,1,1.549.564l3.569,7.649v.007a1.19,1.19,0,0,1,.109.5,1.159,1.159,0,0,1-.677,1.061v0l-2.844.93a3.618,3.618,0,0,1-1.17.167C670.89-2290.229,665.132-2292.38,660.023-2303.68Zm36.888,4.144-.005,0-3.567-7.651a1.162,1.162,0,0,1,.564-1.549l2.871-.882c1.061-.648.68-2.128-.308-4.965l-3.036-6.521c-.9-1.492-1.9-2.872-3.161-2.4l-2.6,1.466,0,0a1.166,1.166,0,0,1-1.556-.569l0,0-3.567-7.65a1.16,1.16,0,0,1,.562-1.549l2.824-.976c1.763-.512,8.308-.327,14.414,12.374,6.337,13.182,2.344,18.876.67,19.868l-2.541,1.58,0,0a1.181,1.181,0,0,1-.5.112A1.179,1.179,0,0,1,696.911-2299.536Zm-24.316-7.447-1.183-2.788a.484.484,0,0,1,.256-.635l2.788-1.184a.484.484,0,0,1,.635.257l1.183,2.787a.485.485,0,0,1-.256.635l-2.788,1.184a.481.481,0,0,1-.188.038A.485.485,0,0,1,672.6-2306.983Zm6.018-2.555-1.184-2.787a.484.484,0,0,1,.257-.635l2.787-1.184a.484.484,0,0,1,.635.257l1.183,2.787a.484.484,0,0,1-.256.635l-2.787,1.184a.481.481,0,0,1-.188.038A.484.484,0,0,1,678.614-2309.538Zm6.017-2.554-1.184-2.787a.485.485,0,0,1,.257-.635l2.788-1.184a.484.484,0,0,1,.634.258l1.184,2.787a.484.484,0,0,1-.257.635l-2.787,1.184a.486.486,0,0,1-.189.039A.483.483,0,0,1,684.631-2312.092Z" transform="translate(5217.865 1174.344)"/></g></svg>