<svg xmlns="http://www.w3.org/2000/svg" viewBox="0 0 68.93 57.68"><defs><style>.cls-1{fill:#2f8fcf;}</style></defs><title>icon-call_duration</title><g id="Layer_2" data-name="Layer 2"><g id="Layer_1-2" data-name="Layer 1"><g id="Layer_2-2" data-name="Layer 2"><path class="cls-1" d="M46.81,0A22.11,22.11,0,0,0,28.4,34.37l4.78-2.78-1.4-2.44-2.06,1.19a18.92,18.92,0,0,1-1.81-6.79h2.37V20.69H27.91a18.92,18.92,0,0,1,1.81-6.79l2.12,1.23,1.43-2.48-2.11-1.22a19.37,19.37,0,0,1,5-5l1.23,2.12,2.47-1.43L38.59,5a19.14,19.14,0,0,1,6.79-1.82V5.66h2.86V3.21A19.08,19.08,0,0,1,55,5L53.81,7.15l2.47,1.43L57.5,6.46a19.41,19.41,0,0,1,5,5l-2.12,1.22,1.43,2.48L63.9,13.9a18.73,18.73,0,0,1,1.82,6.79H63.27v2.86h2.45a18.73,18.73,0,0,1-1.82,6.79l-2-1.19-1.41,2.44,4.79,2.78A22.12,22.12,0,0,0,46.81,0Z"/><path class="cls-1" d="M47.37,19.66a2.68,2.68,0,1,0,1,4.74l11.42,1L49.13,21.09A2.61,2.61,0,0,0,47.37,19.66Z"/></g><path class="cls-1" d="M33.7,53.46h0L28,41.31a1.83,1.83,0,0,0-2.45-.9l-4,2.59c-1.87.63-3.28-1.34-5.72-5.44L11,27.21c-.9-2.61-1.56-5.24.3-6.29l4.43-1.66h0a1.84,1.84,0,0,0,.9-2.47h0L11,4.63a1.84,1.84,0,0,0-2.46-.9L4.46,6.17C2,7.79-4.41,15.94,4.8,36.33c9.57,21.16,20.57,22.11,23.48,21.09l4.52-1.48h0A1.86,1.86,0,0,0,33.7,53.46Z"/></g></g></svg>
