<svg xmlns="http://www.w3.org/2000/svg" width="33" height="33" viewBox="0 0 33 33"><defs><style>.a{fill:#a5a6a7;}</style></defs><g transform="translate(732.97 -3561.5)"><path class="a" d="M-714.681,3577.694a16.717,16.717,0,0,0,1.563-1.54,4.169,4.169,0,0,0,1.051-3.562,4.281,4.281,0,0,0-2.336-3.13,5.7,5.7,0,0,0-2.786-.672,8.492,8.492,0,0,0-1.4.123,4.846,4.846,0,0,0-4.1,4.5c-.009.061,0,.078,0,.079s.014.017.08.024c.6.066,1.2.136,1.827.212l.04-.048c.007-.049.018-.1.042-.206a4.419,4.419,0,0,1,1.034-2.21,3.234,3.234,0,0,1,2.348-.944,3.418,3.418,0,0,1,2.67,1.232,2.831,2.831,0,0,1-.06,3.739,20.51,20.51,0,0,1-1.6,1.505,5.278,5.278,0,0,0-2.008,4.71c.009.105.016.105.081.105h.011c.111,0,.223,0,.334,0h.473s.713,0,.838,0c.068,0,.077,0,.079-.082,0-.228.02-.456.035-.683l.007-.1a3.257,3.257,0,0,1,.8-2.094A13.648,13.648,0,0,1-714.681,3577.694Z" transform="translate(1.02 0.721)"/><path class="a" d="M-717.693,3582.268c-.345,0-.691,0-1.041,0-.065,0-.08.014-.081.015s-.014.015-.014.076q.007.992,0,1.986c0,.065.013.079.014.081a.139.139,0,0,0,.078.013s.289,0,.433,0l1.586,0a.139.139,0,0,0,.068-.012.124.124,0,0,0,.012-.068q0-1,0-2.005c0-.08-.009-.086-.083-.086C-717.046,3582.267-717.369,3582.268-717.693,3582.268Z" transform="translate(1.404 2.053)"/><path class="a" d="M-716.47,3563.259a14.607,14.607,0,0,1,7.156,1.857l.857-1.528v-.011a16.356,16.356,0,0,0-8.014-2.077A16.5,16.5,0,0,0-732.97,3578h1.759A14.761,14.761,0,0,1-716.47,3563.259Z" transform="translate(0 0)"/><path class="a" d="M-702.166,3576.51a14.757,14.757,0,0,1-14.741,14.747,14.617,14.617,0,0,1-7.156-1.868,14.529,14.529,0,0,1-3.265-2.451l-1.242,1.241a16.339,16.339,0,0,0,3.65,2.759,16.353,16.353,0,0,0,8.014,2.077,16.5,16.5,0,0,0,16.5-16.505Z" transform="translate(0.437 1.484)"/><path class="a" d="M-704.58,3569.368a16.322,16.322,0,0,0-2.8-3.617l0,.01-1.228,1.25a14.538,14.538,0,0,1,2.507,3.23Z" transform="translate(2.418 0.42)"/></g></svg>