<svg xmlns="http://www.w3.org/2000/svg" viewBox="0 0 56 62.22"><defs><style>.cls-1{fill:#fff;}</style></defs><title>icon-invoice</title><g id="Layer_2" data-name="Layer 2"><g id="Layer_1-2" data-name="Layer 1"><path class="cls-1" d="M41.69,48.19a4.52,4.52,0,0,1-2.09-.67L40.22,46a3.5,3.5,0,0,0,2,.68c1,0,1.47-.34,1.47-1a1.29,1.29,0,0,0-.4-1,4,4,0,0,0-1.47-1,6.73,6.73,0,0,1-1.47-.91,1.74,1.74,0,0,1-.56-.85,3.15,3.15,0,0,1-.23-1.07,2.38,2.38,0,0,1,.57-1.59,2.79,2.79,0,0,1,1.47-.9V37.22h1.47v1.13a3.58,3.58,0,0,1,1.81.57l-.51,1.47a3.1,3.1,0,0,0-1.87-.62,1.15,1.15,0,0,0-.9.34,1,1,0,0,0-.34.79c0,.56.62,1.13,1.81,1.69a10.38,10.38,0,0,1,1.35.85,2.46,2.46,0,0,1,.63.91,2.61,2.61,0,0,1,.22,1.19,2.29,2.29,0,0,1-.56,1.58,3.21,3.21,0,0,1-1.64,1v1.47H41.58V48.19Z"/><path class="cls-1" d="M42.42,32.19A11.31,11.31,0,1,1,31.11,43.5,11.35,11.35,0,0,1,42.42,32.19m0-2.27A13.58,13.58,0,1,0,56,43.5,13.55,13.55,0,0,0,42.42,29.92Z"/><path class="cls-1" d="M42.42,35.58a7.92,7.92,0,1,1-7.91,7.92,7.94,7.94,0,0,1,7.91-7.92m0-1.13a9,9,0,1,0,9,9,9.08,9.08,0,0,0-9-9Z"/><path class="cls-1" d="M37.56,13H10.92a.57.57,0,1,1,0-1.13h26.7a.53.53,0,0,1,.56.56A.58.58,0,0,1,37.56,13Z"/><path class="cls-1" d="M37.56,19.8H10.92a.54.54,0,0,1-.57-.57.53.53,0,0,1,.57-.56h26.7a.52.52,0,0,1,.56.56A.58.58,0,0,1,37.56,19.8Z"/><path class="cls-1" d="M37.56,26.59H10.92a.57.57,0,1,1,0-1.14h26.7a.53.53,0,0,1,.56.57A.58.58,0,0,1,37.56,26.59Z"/><path class="cls-1" d="M46.16,57.7A3.15,3.15,0,0,1,43.27,60H5.94a3.91,3.91,0,0,1-3.68-3.68V5.37c0-1.86,1.81-3.11,3.68-3.11H43.27a2.94,2.94,0,0,1,3.11,3.11v24a14.7,14.7,0,0,1,2.27.85V5.37A5.2,5.2,0,0,0,43.27,0H5.94C2.83,0,0,2.26,0,5.37V56.28a6.17,6.17,0,0,0,5.94,5.94H43.27a5.66,5.66,0,0,0,5.38-5.37A13.07,13.07,0,0,1,46.16,57.7Z"/><path class="cls-1" d="M33,32.24H10.92a.54.54,0,0,0-.57.57.53.53,0,0,0,.57.56H31.79A8,8,0,0,1,33,32.24Z"/><path class="cls-1" d="M28.4,39H10.86a.54.54,0,0,0-.57.57.53.53,0,0,0,.57.56h17.2C28.17,39.77,28.28,39.43,28.4,39Z"/></g></g></svg>