<svg xmlns="http://www.w3.org/2000/svg" width="33" height="32.998" viewBox="0 0 33 32.998"><defs><style>.a,.b{fill:#a5a6a7;}.b{stroke:#a5a6a7;}.c{fill:#fc476a;stroke:#fc476a;}</style></defs><path class="a" d="M1768.5,43.442a16.5,16.5,0,1,1-16.457-16.517A16.52,16.52,0,0,1,1768.5,43.442ZM1752,58.229a14.805,14.805,0,1,0-14.807-15A14.807,14.807,0,0,0,1752,58.229Z" transform="translate(-1735.498 -26.925)"/><path class="b" d="M1758.105,39.654a9.359,9.359,0,1,1-14.131-8.042.848.848,0,0,1,1.213.216.836.836,0,0,1-.367,1.2,7.6,7.6,0,0,0-3.529,4.748,7.7,7.7,0,1,0,15.113,1.055,7.611,7.611,0,0,0-3.711-5.8.9.9,0,0,1-.492-.873.825.825,0,0,1,.658-.708.808.808,0,0,1,.641.13,9.28,9.28,0,0,1,4.482,6.549c.055.314.09.631.119.95C1758.119,39.274,1758.105,39.465,1758.105,39.654Z" transform="translate(-1732.255 -23.163)"/><path class="c" d="M1745.711,33.752c0,.924.008,1.847,0,2.769a.826.826,0,0,1-1.178.794.79.79,0,0,1-.49-.759q-.009-2.839,0-5.68a.827.827,0,0,1,.834-.838.839.839,0,0,1,.832.875C1745.719,31.859,1745.711,32.805,1745.711,33.752Z" transform="translate(-1728.373 -24.329)"/></svg>