<svg xmlns="http://www.w3.org/2000/svg" width="30.8" height="33" viewBox="0 0 30.8 33"><defs><style>.a{fill:#a5a6a7;}</style></defs><g transform="translate(668.975 -3561.527)"><path class="a" d="M-639.1,3585.915a7.206,7.206,0,0,1-1.927-4.787c-.034-1.584-.034-3.155-.022-4.739.046-5.294-3.072-9.568-8.346-11.431a.862.862,0,0,1-.68-.713,3.625,3.625,0,0,0-3.54-2.718,3.612,3.612,0,0,0-3.553,2.809.74.74,0,0,1-.593.624c-4.753,1.767-7.511,5.013-8.2,9.648a24.581,24.581,0,0,0-.151,4.2c.016.778.033,1.553.009,2.325a6.926,6.926,0,0,1-1.844,4.616,2.916,2.916,0,0,0-.782,3.369,3.444,3.444,0,0,0,3.169,2.075c.4.021.811.028,1.218.028.23,0,.459,0,.683-.006h.914c.221,0,.316.046.408.3a4.181,4.181,0,0,0,4.058,3.008h.036a4.113,4.113,0,0,0,4.189-2.933c.111-.3.249-.364.466-.378v-.01c.625.009,1.252.012,1.879.012h5.73c1.316,0,2.629,0,3.941-.013a3.7,3.7,0,0,0,3.75-2.583A2.813,2.813,0,0,0-639.1,3585.915Zm-28.245,1.732a1.389,1.389,0,0,1,.4-.708,8.561,8.561,0,0,0,2.44-6.161c.015-.7,0-1.392-.021-2.087a20.857,20.857,0,0,1,.179-4.252c.747-4.142,3.316-6.9,7.64-8.21a1.228,1.228,0,0,0,1.058-1.3,1.909,1.909,0,0,1,2.057-1.9,1.834,1.834,0,0,1,2,1.785c.014.944.482,1.252,1.286,1.466a10.325,10.325,0,0,1,7.652,9.465c.018.864.014,1.728.012,2.593s-.005,1.724.011,2.583a8.906,8.906,0,0,0,2.35,6.014,1.518,1.518,0,0,1,.286,1.731,1.592,1.592,0,0,1-1.674,1.024l-16-.011-7.756.011a2.055,2.055,0,0,1-1.614-.631A1.651,1.651,0,0,1-667.345,3587.647Zm11.765,3.9a2.694,2.694,0,0,1-2.536,1.476,4.253,4.253,0,0,1-1.509-.293,2.421,2.421,0,0,1-1.162-1.284c-.075-.175-.069-.227-.028-.233v-.005c.671.005,1.343.009,2.006.009h3.087a.408.408,0,0,1,.222.036S-655.475,3591.317-655.58,3591.547Z" transform="translate(0 0)"/><path class="a" d="M-661.482,3571.765a.792.792,0,0,0,.371.1.918.918,0,0,0,.708-.409,9.117,9.117,0,0,1,4.744-3.064,1.126,1.126,0,0,0,.745-.452.684.684,0,0,0,.025-.554.691.691,0,0,0-.7-.518,2.135,2.135,0,0,0-.516.087,10.7,10.7,0,0,0-4.425,2.4,7.161,7.161,0,0,0-1.256,1.4A.719.719,0,0,0-661.482,3571.765Z" transform="translate(0.71 0.534)"/><path class="a" d="M-662.762,3575.017l.128.009a.774.774,0,0,0,.757-.59c.128-.4.25-.809.356-1.22.157-.6,0-.97-.466-1.108a.955.955,0,0,0-.269-.042c-.542,0-.75.552-.848.815l-.078.319c-.073.286-.15.6-.208.91a.8.8,0,0,0,.113.629A.724.724,0,0,0-662.762,3575.017Z" transform="translate(0.557 1.054)"/></g></svg>