<svg xmlns="http://www.w3.org/2000/svg" width="43.807" height="42.455" viewBox="0 0 43.807 42.455"><defs><style>.a{fill:#fff;}</style></defs><path class="a" d="M1171.285,1225.012V1225l-4.443-9.526a1.445,1.445,0,0,0-1.929-.7l-3.14,2.033c-1.467.493-2.573-1.055-4.49-4.268l-3.79-8.116c-.705-2.05-1.218-4.111.24-4.937l3.477-1.3v-.005a1.451,1.451,0,0,0,.7-1.939v-.006l-4.443-9.527a1.445,1.445,0,0,0-1.927-.7l-3.193,1.912c-1.9,1.272-6.961,7.665.267,23.656,7.5,16.6,16.131,17.345,18.417,16.542l3.541-1.158v0A1.456,1.456,0,0,0,1171.285,1225.012Z" transform="translate(-1144.854 -1185.868)"/><g transform="translate(22.547 17.559)"><rect class="a" width="4.977" height="4.977" rx="0.484"/><rect class="a" width="4.977" height="4.977" rx="0.484" transform="translate(8.141)"/><rect class="a" width="4.977" height="4.977" rx="0.484" transform="translate(16.283)"/></g></svg>