<svg xmlns="http://www.w3.org/2000/svg" width="60" height="43.783" viewBox="0 0 60 43.783"><defs><style>.a{fill:#fff;}</style></defs><path class="a" d="M-803.2,3565.566a2.143,2.143,0,0,0-2.142,2.142,2.147,2.147,0,0,0,.652,1.54,25.6,25.6,0,0,1,7.56,18.205,25.6,25.6,0,0,1-7.56,18.206,2.143,2.143,0,0,0-.06,3.03,2.142,2.142,0,0,0,3.03.062l.06-.062a29.923,29.923,0,0,0,8.816-21.236,29.921,29.921,0,0,0-8.816-21.236A2.142,2.142,0,0,0-803.2,3565.566Zm-39.416.05a2.14,2.14,0,0,0-1.464.652,29.932,29.932,0,0,0-8.764,21.186,29.933,29.933,0,0,0,8.764,21.187,2.143,2.143,0,0,0,3.03.062,2.145,2.145,0,0,0,.06-3.03l-.06-.061a25.591,25.591,0,0,1-7.51-18.156,25.6,25.6,0,0,1,7.51-18.156,2.143,2.143,0,0,0,.052-3.029A2.146,2.146,0,0,0-842.616,3565.615Zm30.334,9.055a2.144,2.144,0,0,0-2.142,2.145,2.148,2.148,0,0,0,.652,1.54,12.773,12.773,0,0,1,3.784,9.1,12.772,12.772,0,0,1-3.784,9.1,2.147,2.147,0,0,0,0,3.034,2.144,2.144,0,0,0,3.032,0,17.113,17.113,0,0,0,5.04-12.138,17.111,17.111,0,0,0-5.04-12.136A2.137,2.137,0,0,0-812.282,3574.671Zm-21.228.027a2.145,2.145,0,0,0-1.472.652,17.122,17.122,0,0,0-5.006,12.1,17.12,17.12,0,0,0,5.006,12.1,2.145,2.145,0,0,0,3.034,0,2.144,2.144,0,0,0,0-3.031,12.779,12.779,0,0,1-3.758-9.074,12.786,12.786,0,0,1,3.758-9.074,2.141,2.141,0,0,0,.052-3.03A2.145,2.145,0,0,0-833.51,3574.7Zm10.666,8.469a4.286,4.286,0,0,0-4.286,4.286,4.285,4.285,0,0,0,4.286,4.286,4.284,4.284,0,0,0,4.284-4.286A4.286,4.286,0,0,0-822.844,3583.167Z" transform="translate(852.844 -3565.566)"/></svg>