<svg xmlns="http://www.w3.org/2000/svg" width="40.485" height="43.461" viewBox="0 0 40.485 43.461"><defs><style>.a{fill:#fff;stroke:rgba(0,0,0,0);stroke-miterlimit:10;}</style></defs><g transform="translate(0.506 0.506)"><path class="a" d="M-2857.339-2042.765c-7.229-15.991-2.167-22.383-.267-23.656l3.193-1.913a1.444,1.444,0,0,1,1.927.7l4.442,9.526v.005a1.451,1.451,0,0,1-.7,1.94v.005l-3.477,1.3c-1.458.827-.946,2.888-.24,4.938l3.79,8.116c1.916,3.212,3.023,4.761,4.489,4.268l3.141-2.033a1.445,1.445,0,0,1,1.929.7l4.443,9.526v.009a1.455,1.455,0,0,1-.708,1.939v0l-3.542,1.158a4.5,4.5,0,0,1-1.458.209C-2843.809-2026.015-2850.979-2028.695-2857.339-2042.765Zm27.2-7.374-9.336,3.584-2.508-6.535,9.336-3.584-1.433-3.734,12.2,3.885-6.468,11.053Z" transform="translate(2861.105 2068.469)"/></g></svg>