<svg xmlns="http://www.w3.org/2000/svg" width="33.001" height="33" viewBox="0 0 33.001 33"><defs><style>.a{fill:#a5a6a7;}</style></defs><g transform="translate(-57.374 -757.368)"><g transform="translate(57.374 757.368)"><path class="a" d="M70.445,790.368a.883.883,0,0,1-.335-.065l-5.019-2.043a.894.894,0,0,1-.551-.882l.214-3.3a14.247,14.247,0,0,1-1.046-1.048l-3.305.228a.881.881,0,0,1-.884-.549L57.457,777.7a.894.894,0,0,1,.24-1.014l2.508-2.162c-.02-.418-.02-.838,0-1.254l-2.52-2.158a.888.888,0,0,1-.244-1.012l2.043-5.017a.9.9,0,0,1,.882-.553l3.309.216a13.546,13.546,0,0,1,1.04-1.038l-.228-3.313a.887.887,0,0,1,.549-.884l5.009-2.062a.894.894,0,0,1,1.014.24l2.164,2.51c.414-.018.836-.016,1.248,0l2.16-2.522a.894.894,0,0,1,1.012-.244l5.015,2.043a.891.891,0,0,1,.553.883L83,763.664a13.426,13.426,0,0,1,1.044,1.044l3.309-.228a.893.893,0,0,1,.882.549l2.061,5.009a.891.891,0,0,1-.24,1.012l-2.5,2.159c.02.42.02.844,0,1.264l2.512,2.152a.893.893,0,0,1,.246,1.012l-2.043,5.017a.877.877,0,0,1-.88.553l-3.3-.216a13.244,13.244,0,0,1-1.052,1.052l.228,3.3a.893.893,0,0,1-.549.884l-5.009,2.061a.891.891,0,0,1-1.014-.24l-2.154-2.5c-.424.018-.846.016-1.27,0l-2.148,2.51A.891.891,0,0,1,70.445,790.368Zm-4.089-3.515,3.83,1.559,2.021-2.36a.894.894,0,0,1,.749-.307,12.233,12.233,0,0,0,1.9,0,.888.888,0,0,1,.741.307l2.021,2.342,3.824-1.573-.214-3.1a.888.888,0,0,1,.319-.743,12.146,12.146,0,0,0,1.478-1.476.885.885,0,0,1,.737-.315l3.1.2,1.559-3.83-2.362-2.025a.878.878,0,0,1-.307-.745,12.381,12.381,0,0,0,0-1.9.881.881,0,0,1,.3-.743l2.348-2.027L86.83,766.3l-3.113.214a.872.872,0,0,1-.743-.317,12.011,12.011,0,0,0-1.468-1.47.9.9,0,0,1-.313-.739l.2-3.1-3.826-1.561L75.533,761.7a.912.912,0,0,1-.747.307,12.171,12.171,0,0,0-1.88,0,.89.89,0,0,1-.743-.3l-2.033-2.356-3.824,1.573.214,3.117a.893.893,0,0,1-.317.743,11.93,11.93,0,0,0-1.464,1.464.891.891,0,0,1-.739.315l-3.109-.2-1.561,3.828L61.7,772.2a.88.88,0,0,1,.307.747,12.222,12.222,0,0,0,0,1.884.887.887,0,0,1-.3.745l-2.356,2.033,1.573,3.822,3.109-.214a.893.893,0,0,1,.745.317,11.947,11.947,0,0,0,1.47,1.476.891.891,0,0,1,.315.739Z" transform="translate(-57.374 -757.368)"/><g transform="translate(9.263 9.262)"><path class="a" d="M69.2,776.43a7.237,7.237,0,1,1,7.236-7.236A7.245,7.245,0,0,1,69.2,776.43Zm0-12.694a5.457,5.457,0,1,0,5.458,5.458A5.464,5.464,0,0,0,69.2,763.736Z" transform="translate(-61.962 -761.955)"/></g></g></g></svg>