<svg xmlns="http://www.w3.org/2000/svg" width="33" height="33" viewBox="0 0 33 33"><defs><style>.a{fill:#a5a6a7;}</style></defs><g transform="translate(-15.11 -13.6)"><path class="a" d="M48.11,21.252a1.314,1.314,0,0,0-.036-.23l-2.225-6.876a.806.806,0,0,0-.773-.546H18.143a.8.8,0,0,0-.773.55l-2.227,6.884a1.349,1.349,0,0,0-.034.226v3.061a3.835,3.835,0,0,0,2.224,3.438V45.814a.8.8,0,0,0,.81.786H45.076a.8.8,0,0,0,.81-.786V27.76a3.834,3.834,0,0,0,2.224-3.442ZM28.522,32.925v12.1H23.129v-12.1Zm.81-1.572H22.319a.8.8,0,0,0-.81.786V45.028H18.954V28.142h.114a3.969,3.969,0,0,0,3.126-1.5,4.029,4.029,0,0,0,5.376.834,3.884,3.884,0,0,0,.9-.834,4.029,4.029,0,0,0,5.376.834,3.883,3.883,0,0,0,.9-.834,4.029,4.029,0,0,0,5.376.834,3.89,3.89,0,0,0,.9-.834,3.969,3.969,0,0,0,3.126,1.5h.114V45.028H30.142V32.139A.8.8,0,0,0,29.332,31.354Zm12.5-7.035a.811.811,0,0,0-1.62,0,2.33,2.33,0,0,1-4.657,0,.81.81,0,0,0-1.62,0,2.33,2.33,0,0,1-4.657,0,.81.81,0,0,0-1.62,0,2.33,2.33,0,0,1-4.657,0,.81.81,0,0,0-1.62,0,2.33,2.33,0,0,1-4.657,0V22.046H46.49v2.272a2.33,2.33,0,0,1-4.657,0Zm2.648-9.147,1.717,5.3H17.025l1.714-5.3Z" transform="translate(0 0)"/><path class="a" d="M69.16,76.46h7.013a.811.811,0,0,0,.81-.81V68.64a.811.811,0,0,0-.81-.81H69.16a.811.811,0,0,0-.81.81v7.01A.811.811,0,0,0,69.16,76.46Zm6.2-7.009V74.84H69.97V69.45Z" transform="translate(-35.272 -36.663)"/></g></svg>