<svg xmlns="http://www.w3.org/2000/svg" width="43" height="46.314" viewBox="0 0 43 46.314"><defs><style>.a{fill:#2f8fcf;}</style></defs><path class="a" d="M400.171,1188.131v-.957h1.337v-2.462h-6.646v2.462h1.2v.957a21.418,21.418,0,0,0-13.049,6.1l-.539-.54.793-.793-.914-.913-2.873,2.873.914.913.839-.839.591.59a21.489,21.489,0,1,0,18.353-7.4Zm-1.145,39.327v-3.2a.912.912,0,0,0-1.825,0v3.2a17.947,17.947,0,0,1-17.02-17.018h3.062a.913.913,0,1,0,0-1.825h-3.062a17.949,17.949,0,0,1,17.027-17.02c0,.013-.007.026-.007.041v3.343a.912.912,0,1,0,1.825,0v-3.343c0-.015-.007-.028-.007-.041a17.949,17.949,0,0,1,17.027,17.02h-3.088a.913.913,0,0,0,0,1.825h3.088A17.945,17.945,0,0,1,399.026,1227.458Z" transform="translate(-376.613 -1184.712)"/><path class="a" d="M404.1,1215.306a1.759,1.759,0,0,0,.116-.569,2.09,2.09,0,1,0-1.527,1.743.543.543,0,0,0,.043.054l7.442,6.458,2,.53-.995-2.07Z" transform="translate(-380.921 -1189.776)"/></svg>