<svg xmlns="http://www.w3.org/2000/svg" width="60" height="59.999" viewBox="0 0 60 59.999"><defs><style>.a{fill:#fff;}</style></defs><g transform="translate(787.719 -3561.527)"><path class="a" d="M-727.719,3589.1v4.918c-.142.981-.222,1.976-.432,2.944q-3.9,18.073-21.575,23.554a32.127,32.127,0,0,1-5.508,1.012h-4.916c-1.08-.157-2.168-.271-3.236-.478a30.014,30.014,0,0,1-24.1-33.246,27.811,27.811,0,0,1,4.994-13.156c7.5-10.319,17.692-14.816,30.237-12.542,12.082,2.189,19.849,9.708,23.514,21.426A30.384,30.384,0,0,1-727.719,3589.1Zm-29.973,28.623a26.115,26.115,0,0,0,26.147-26.159,26.021,26.021,0,0,0-26.121-26.157,26.019,26.019,0,0,0-26.175,26.162A26.113,26.113,0,0,0-757.692,3617.721Z" transform="translate(0 0)"/><path class="a" d="M-774.6,3578.387c0-2.788-.01-5.576.006-8.363a1.9,1.9,0,0,1,2.71-1.763,1.891,1.891,0,0,1,1.124,1.887q-.012,6.813,0,13.627c0,1.3-.108,1.186,1.206,1.188q6.816,0,13.63,0a1.874,1.874,0,0,1,2.022,1.82,1.875,1.875,0,0,1-1.846,2c-.858.028-1.716.008-2.574.008q-7.02,0-14.04,0a1.98,1.98,0,0,1-2.236-2.218Z" transform="translate(13.116 6.55)"/></g></svg>