<svg xmlns="http://www.w3.org/2000/svg" viewBox="0 0 208.58 192"><defs><style>.cls-1{fill:#fff;}</style></defs><title>logo-vert</title><g id="Layer_2" data-name="Layer 2"><g id="Layer_1-2" data-name="Layer 1"><path class="cls-1" d="M150.61,40.24a3.19,3.19,0,0,1-3-2.1,30,30,0,0,0-18-18,3.19,3.19,0,0,1,2.19-6A36.37,36.37,0,0,1,153.61,36a3.19,3.19,0,0,1-3,4.28Z"/><path class="cls-1" d="M163.53,34.36a4.25,4.25,0,0,1-4-2.8A38.88,38.88,0,0,0,136.25,8.25a4.25,4.25,0,1,1,2.92-8,47.38,47.38,0,0,1,28.36,28.4A4.26,4.26,0,0,1,165,34.11,4.34,4.34,0,0,1,163.53,34.36Z"/><path class="cls-1" d="M153.57,38.2a3.11,3.11,0,0,1-1.87,1.85,3.19,3.19,0,0,1-4.08-1.91,30,30,0,0,0-18-18,3.18,3.18,0,0,1-.09-6s0,0,0,.07a3.19,3.19,0,0,0,1.91,4.08,30,30,0,0,1,17.95,18,3.18,3.18,0,0,0,3,2.11,3.47,3.47,0,0,0,1.09-.19S153.55,38.22,153.57,38.2Z"/><path class="cls-1" d="M167.29,32.08a4.1,4.1,0,0,1-2.3,2,4,4,0,0,1-1.46.25,4.26,4.26,0,0,1-4-2.78A38.81,38.81,0,0,0,136.26,8.26a4.29,4.29,0,0,1-2.55-5.47,4.17,4.17,0,0,1,2-2.3,3.43,3.43,0,0,0-.23.52,4.25,4.25,0,0,0,2.55,5.44,38.82,38.82,0,0,1,23.26,23.31,4.24,4.24,0,0,0,5.45,2.55C167,32.25,167.12,32.16,167.29,32.08Z"/><path class="cls-1" d="M186.52,114.58c-5.33,21-27.5,33.75-48.45,28.38-12.73-3.26-17.38-18.44-11.53-29.36a62.42,62.42,0,0,0,6.32-18c.11-.53.2-1.07.32-1.61A65.64,65.64,0,0,0,134,83.88a63.07,63.07,0,0,0-2.61-18c-3.63-12.15-11.8-28-26.43-28a17.14,17.14,0,0,0-1.76.08A20.59,20.59,0,0,0,90.84,73.51c.21.17.39.35.58.52A20.55,20.55,0,0,0,108,78.85a5.49,5.49,0,0,1,5.29,2.21,5.17,5.17,0,0,1,.39.68c0,.1.1.2.14.3a3.12,3.12,0,0,1,.24.73c0,.1,0,.2.07.32a.29.29,0,0,0,0,.09,5.52,5.52,0,0,1,0,1.67c-.23,1.34-.53,2.84-.91,4.48-.14.61-.3,1.25-.47,1.89s-.33,1.19-.51,1.78c-.32,1-.65,2-1,3a57,57,0,0,1-2.3,5.53c-.52,1.11-1.07,2.19-1.66,3.26a0,0,0,0,0,0,0l-.29.51c-.1.19-.22.4-.35.62-.33.55-.69,1.14-1,1.67-.19.3-.36.59-.51.82a1.79,1.79,0,0,0-.13.22l-.21.35q-1.55,2.39-3.32,4.61L100.35,115c-.84,1-1.73,2-2.64,3a.42.42,0,0,1-.14.13h0a1.69,1.69,0,0,1-.28.26,5.3,5.3,0,0,1-6.94,0,4.93,4.93,0,0,1-.5-.52,6.27,6.27,0,0,1-.42-.59l-.18-.33c-.22-.42-.45-.83-.7-1.24-.13-.19-.25-.39-.37-.58a20.65,20.65,0,0,0-3.09-3.69s0,0,0,0A20.31,20.31,0,0,0,78,107s0,0,0,0c-.23-.09-.45-.16-.67-.23l-.68-.21a20.63,20.63,0,0,0-26.2,17.32,19.5,19.5,0,0,0,1.43,10.65,15.73,15.73,0,0,0,.7,1.42,11.84,11.84,0,0,0,1.12,1.73,4.09,4.09,0,0,1,.88,2.51,4.14,4.14,0,0,1-5.51,3.93,45.32,45.32,0,0,1-15.57-9.14,16.11,16.11,0,0,1-1.16-1.18A42,42,0,0,1,57.1,63.27a7.28,7.28,0,0,0,6.19-6.19,42.06,42.06,0,0,1,26-33.21l.42-.16a41.53,41.53,0,0,1,15.24-2.85,42,42,0,0,1,41.64,36.33,7.09,7.09,0,0,0,6.05,6.06C176.15,66.51,192.37,91.57,186.52,114.58Z"/><path class="cls-1" d="M53.8,137.74a4.1,4.1,0,0,1-4.55,6.4A45.57,45.57,0,0,1,33.53,135a16.35,16.35,0,0,1-1.17-1.19,41.76,41.76,0,0,1-11.5-28.86,38.24,38.24,0,0,1,.19-3.89,41.73,41.73,0,0,0,11.31,24.84A16.35,16.35,0,0,0,33.53,127a45.57,45.57,0,0,0,15.72,9.19,3.86,3.86,0,0,0,3.36-.32,13.38,13.38,0,0,0,1.1,1.72Z"/><path class="cls-1" d="M114.09,84.85c-.23,1.34-.52,2.84-.89,4.48-.14.61-.3,1.25-.47,1.89s-.33,1.19-.51,1.78c-.31,1-.65,2-1,3a57,57,0,0,1-2.3,5.53c-.52,1.11-1.08,2.19-1.66,3.26a0,0,0,0,0,0,0l-.29.51c-.1.19-.22.4-.35.62-.33.55-.69,1.14-1,1.67l-.51.82a1.79,1.79,0,0,0-.13.22l-.23.35q-1.54,2.37-3.3,4.61L100.35,115c-.9,1.07-1.81,2.1-2.78,3.1h0a1.69,1.69,0,0,1-.28.26,5.18,5.18,0,0,1-6.94,0,4.93,4.93,0,0,1-.5-.52,6.27,6.27,0,0,1-.42-.59,4,4,0,0,1-.2-.35c-.21-.41-.45-.81-.68-1.22-.13-.19-.25-.39-.37-.58a21.45,21.45,0,0,0-3.09-3.69s0,0,0,0A20.81,20.81,0,0,0,78,107s0,0,0,0l-.67-.23-.68-.21a20.63,20.63,0,0,0-26.2,17.32,19.5,19.5,0,0,0,1.43,10.65c-1.21-2.06-3.54-9.5-1.43-18.55s8.24-16.53,17.27-17.89a20.62,20.62,0,0,1,21.48,10.87,5.21,5.21,0,0,0,8.34,1.24,63,63,0,0,0,7.14-9c.13-.17,1.86-3,2.51-4.19a61.24,61.24,0,0,0,5.51-13.61q.31-1.17.54-2.25a5.17,5.17,0,0,1,.39.68c0,.1.1.2.14.3a4.46,4.46,0,0,1,.24.73c0,.1,0,.2.07.32a.29.29,0,0,0,0,.09A5.88,5.88,0,0,1,114.09,84.85Z"/><path class="cls-1" d="M186.51,114.58c-5.34,21-27.5,33.75-48.45,28.39-10.46-2.7-15.46-13.44-13.65-23.25,1.25,7.08,6,13.38,13.65,15.34,20.95,5.36,43.11-7.38,48.45-28.4a36,36,0,0,0,1-5.78A39.27,39.27,0,0,1,186.51,114.58Z"/><path class="cls-1" d="M0,188.17V168.92a3,3,0,0,1,3-3H3a3,3,0,0,1,3,3v19.25a3,3,0,0,1-3,3H3A3,3,0,0,1,0,188.17Z"/><path class="cls-1" d="M70,178.54a14,14,0,0,1,1-5.25,13,13,0,0,1,2.85-4.39,12.09,12.09,0,0,1,4.13-2.83,12.58,12.58,0,0,1,4.93-1,12.72,12.72,0,0,1,5,1A13,13,0,0,1,92,168.93a12.72,12.72,0,0,1,2.8,4.32,15.29,15.29,0,0,1,.29,9.75,12.71,12.71,0,0,1-2,3.82,13,13,0,0,1-4.55,3.82A12.65,12.65,0,0,1,78,191a12.74,12.74,0,0,1-4.16-2.86A13.1,13.1,0,0,1,71,183.78,14,14,0,0,1,70,178.54Zm6.21,0a8.14,8.14,0,0,0,1.92,5.52,6.21,6.21,0,0,0,9.51,0,9,9,0,0,0,0-11.08,6.18,6.18,0,0,0-9.51,0A8.18,8.18,0,0,0,76.19,178.54Z"/><path class="cls-1" d="M120.53,169.32a2.62,2.62,0,0,1-3.75,2.09l0,0a8.05,8.05,0,0,0-3.53-.82,6.81,6.81,0,0,0-5.25,2.22,8,8,0,0,0-2,5.68,7.86,7.86,0,0,0,2,5.62,6.9,6.9,0,0,0,5.27,2.16,9.84,9.84,0,0,0,3.82-.8l0,0a2.48,2.48,0,0,1,3.5,2.38l0,.63a2.47,2.47,0,0,1-1.32,2.06,14.18,14.18,0,0,1-2.3.93,14,14,0,0,1-4,.57,13.06,13.06,0,0,1-4.28-.7,12.63,12.63,0,0,1-3.78-2.05,13,13,0,0,1-3.74-4.68,14.1,14.1,0,0,1-1.29-6,14.49,14.49,0,0,1,1-5.26,12.74,12.74,0,0,1,7.07-7.23,13.15,13.15,0,0,1,5.11-1,14,14,0,0,1,4.06.59,13,13,0,0,1,2.2.9,2.52,2.52,0,0,1,1.33,2.51Z"/><path class="cls-1" d="M136.37,175.23l-5.11,12.27-.93,2.09a2.68,2.68,0,0,1-2.45,1.59h0a2.68,2.68,0,0,1-2.41-3.87l11-22.19h.38l10.74,22.21a2.68,2.68,0,0,1-2.42,3.85h-.27a2.68,2.68,0,0,1-2.46-1.61l-.9-2.07Z"/><path class="cls-1" d="M152.76,191.18V168.92a3,3,0,0,1,3-3h0a3,3,0,0,1,3,3v16.84h7.14a2.71,2.71,0,0,1,2.71,2.71h0a2.71,2.71,0,0,1-2.71,2.71Z"/><path class="cls-1" d="M173,191.18V168.92a3,3,0,0,1,3-3h0a3,3,0,0,1,3,3v16.84h7.14a2.71,2.71,0,0,1,2.72,2.71h0a2.71,2.71,0,0,1-2.72,2.71Z"/><path class="cls-1" d="M192.5,188.69a2.66,2.66,0,0,1,3.59-2.66h0a9.63,9.63,0,0,0,3.18.57,4.25,4.25,0,0,0,2.52-.68,2.09,2.09,0,0,0,1-1.77c0-1-1.12-2.2-3.38-3.49l-.84-.49-1.71-1a10.64,10.64,0,0,1-3.69-3.19,7.05,7.05,0,0,1-1.2-4,6.24,6.24,0,0,1,2.3-5,8.86,8.86,0,0,1,5.94-1.95,14.73,14.73,0,0,1,2.91.31c.55.11,1.13.25,1.73.42a2.45,2.45,0,0,1,1.76,2.36h0a2.53,2.53,0,0,1-3.44,2.36h0a8,8,0,0,0-2.79-.63,3.23,3.23,0,0,0-2,.55,1.75,1.75,0,0,0-.73,1.49,2,2,0,0,0,.43,1.24,4,4,0,0,0,1.31,1l3,1.64a15.87,15.87,0,0,1,5,3.8,6.81,6.81,0,0,1,1.28,4.13,7.68,7.68,0,0,1-2.52,6,9.63,9.63,0,0,1-6.69,2.27,18.09,18.09,0,0,1-3.06-.29c-.59-.11-1.2-.24-1.84-.41a2.65,2.65,0,0,1-1.95-2.36Z"/><path class="cls-1" d="M32.22,165.9a3,3,0,0,0-3,3v12.6L18.92,167.3h0a3,3,0,0,0-5.57,1.61v19.25a3,3,0,0,0,6,0V175.43l10.28,14.34h0a3,3,0,0,0,5.56-1.6V168.92A3,3,0,0,0,32.22,165.9Z"/><path class="cls-1" d="M61.32,165.9a3,3,0,0,0-3,3v12.6L48,167.3h0a3,3,0,0,0-5.56,1.61v19.25a3,3,0,0,0,6,0V175.43l10.29,14.34h0a3,3,0,0,0,5.56-1.6V168.92A3,3,0,0,0,61.32,165.9Z"/></g></g></svg>