<svg xmlns="http://www.w3.org/2000/svg" xmlns:xlink="http://www.w3.org/1999/xlink" width="275.302" height="73.935" viewBox="0 0 275.302 73.935"><defs><style>.a{fill:url(#a);}.b{fill:#0480bd;}.c{fill:url(#c);}.d{fill:#4d4c4d;}</style><linearGradient id="a" y1="0.5" x2="1" y2="0.5" gradientUnits="objectBoundingBox"><stop offset="0" stop-color="#16638c"/><stop offset="1" stop-color="#0a4e80"/></linearGradient><linearGradient id="c" x1="0.5" y1="0.103" x2="0.5" y2="0.996" xlink:href="#a"/></defs><g transform="translate(-813 -143.065)"><g transform="translate(799.028 -142.87)"><g transform="translate(13.972 285.935)"><g transform="translate(54.643 0)"><g transform="translate(0 7.161)"><path class="a" d="M401.319,348.6a1.634,1.634,0,0,1-1.536-1.075,15.354,15.354,0,0,0-9.191-9.2,1.634,1.634,0,0,1,1.119-3.07,18.617,18.617,0,0,1,11.144,11.156,1.633,1.633,0,0,1-1.536,2.192Z" transform="translate(-389.517 -335.152)"/></g><g transform="translate(3.018)"><path class="a" d="M425.655,303.532a2.18,2.18,0,0,1-2.047-1.436,19.908,19.908,0,0,0-11.919-11.935,2.178,2.178,0,1,1,1.491-4.093A24.248,24.248,0,0,1,427.7,300.609a2.181,2.181,0,0,1-2.047,2.923Z" transform="translate(-410.256 -285.935)"/></g></g><g transform="translate(54.643 0.253)"><g transform="translate(0 7.025)"><path class="b" d="M402.836,348.239a1.587,1.587,0,0,1-.958.948,1.659,1.659,0,0,1-.555.1,1.637,1.637,0,0,1-1.536-1.078,15.4,15.4,0,0,0-9.192-9.2,1.628,1.628,0,0,1-.044-3.049c0,.011-.011.022-.011.033a1.632,1.632,0,0,0,.98,2.091,15.4,15.4,0,0,1,9.192,9.2,1.627,1.627,0,0,0,1.536,1.078,1.66,1.66,0,0,0,.556-.1C402.814,348.261,402.825,348.25,402.836,348.239Z" transform="translate(-389.517 -335.954)"/></g><g transform="translate(3.019)"><path class="b" d="M427.587,303.849a2.086,2.086,0,0,1-1.176,1.035,2.024,2.024,0,0,1-.751.131,2.189,2.189,0,0,1-2.048-1.427A19.879,19.879,0,0,0,411.7,291.651a2.194,2.194,0,0,1-1.307-2.8,2.144,2.144,0,0,1,1.046-1.176,2.776,2.776,0,0,0-.12.261,2.177,2.177,0,0,0,1.307,2.788,19.88,19.88,0,0,1,11.915,11.936,2.174,2.174,0,0,0,2.788,1.307A2.776,2.776,0,0,0,427.587,303.849Z" transform="translate(-410.262 -287.676)"/></g></g><path class="c" d="M98.829,407.33a20.5,20.5,0,0,1-24.813,14.532c-6.518-1.671-8.9-9.443-5.9-15.034A31.909,31.909,0,0,0,71.35,397.6c.054-.273.1-.547.161-.824a33.214,33.214,0,0,0,.408-5.17,32.159,32.159,0,0,0-1.34-9.224c-1.859-6.222-6.043-14.331-13.533-14.331a8.572,8.572,0,0,0-.9.04A10.546,10.546,0,0,0,49.829,386.3c.108.085.2.179.3.264a10.544,10.544,0,0,0,8.485,2.473,2.8,2.8,0,0,1,2.706,1.129,2.7,2.7,0,0,1,.2.349c.027.049.049.1.072.152a1.808,1.808,0,0,1,.121.372c.013.054.027.108.036.166a.189.189,0,0,0,.009.049,2.59,2.59,0,0,1-.009.851c-.116.69-.269,1.456-.466,2.294-.072.314-.152.641-.237.972-.085.3-.17.609-.264.909-.161.524-.331,1.044-.524,1.554a30.262,30.262,0,0,1-1.178,2.836c-.269.564-.551,1.12-.851,1.666a0,0,0,0,0,0,0c-.04.076-.094.166-.148.264s-.116.206-.184.318c-.166.278-.349.582-.511.851-.094.157-.184.3-.26.421a1.068,1.068,0,0,0-.067.112c-.058.1-.1.161-.108.179-.529.815-1.1,1.6-1.7,2.361-.179.224-.363.448-.547.672-.43.524-.882,1.03-1.348,1.523a.346.346,0,0,1-.076.067v0a.94.94,0,0,1-.139.13,2.719,2.719,0,0,1-3.557-.013,2.433,2.433,0,0,1-.255-.269,3.011,3.011,0,0,1-.215-.3c-.031-.058-.063-.112-.094-.17-.112-.215-.229-.426-.359-.632-.063-.1-.125-.2-.188-.3a10.474,10.474,0,0,0-1.581-1.89s-.009,0-.009,0a10.441,10.441,0,0,0-3.6-2.235s0,0,0,0c-.117-.045-.233-.085-.345-.116s-.228-.072-.345-.108a10.553,10.553,0,0,0-13.417,8.865,10.007,10.007,0,0,0,.73,5.456,7.812,7.812,0,0,0,.358.726,6.254,6.254,0,0,0,.573.887,2.085,2.085,0,0,1,.453,1.286,2.121,2.121,0,0,1-2.822,2.011,23.186,23.186,0,0,1-7.974-4.681,8.425,8.425,0,0,1-.6-.6,21.512,21.512,0,0,1,12.664-36.1,3.721,3.721,0,0,0,3.172-3.167,21.536,21.536,0,0,1,13.3-17.005c.072-.031.139-.058.215-.085A21.532,21.532,0,0,1,78.37,377.943a3.631,3.631,0,0,0,3.1,3.1C93.516,382.714,101.821,395.548,98.829,407.33Z" transform="translate(-13.993 -348.654)"/><g transform="translate(0 41.509)"><path class="b" d="M30.842,660.226a2.1,2.1,0,0,1-2.331,3.278,23.25,23.25,0,0,1-8.048-4.705,7.885,7.885,0,0,1-.6-.61,21.378,21.378,0,0,1-5.892-14.779q0-1.013.1-1.993a21.365,21.365,0,0,0,5.794,12.721,7.9,7.9,0,0,0,.6.61,23.252,23.252,0,0,0,8.048,4.705,1.955,1.955,0,0,0,1.721-.163,6.2,6.2,0,0,0,.566.882Z" transform="translate(-13.972 -631.202)"/><path class="b" d="M148.246,573.155c-.116.685-.264,1.456-.457,2.294-.072.314-.152.641-.237.972-.085.3-.17.609-.264.909-.157.524-.331,1.039-.524,1.554a30.252,30.252,0,0,1-1.178,2.836c-.269.564-.556,1.12-.851,1.666a0,0,0,0,0,0,0c-.04.076-.094.166-.148.264s-.116.206-.184.318c-.166.278-.349.582-.511.851-.1.157-.188.3-.26.421a1.07,1.07,0,0,0-.067.112c-.063.094-.1.161-.117.179q-.793,1.216-1.689,2.361c-.179.224-.363.448-.547.672-.457.547-.927,1.075-1.424,1.59v0a.936.936,0,0,1-.139.13,2.654,2.654,0,0,1-3.557-.013,2.433,2.433,0,0,1-.255-.269,3,3,0,0,1-.215-.3c-.036-.058-.072-.116-.1-.179-.108-.21-.228-.417-.35-.623-.063-.1-.125-.2-.188-.3a10.826,10.826,0,0,0-1.581-1.89s-.009,0-.009,0a10.663,10.663,0,0,0-3.6-2.235s0,0,0,0c-.117-.04-.228-.081-.345-.116l-.345-.107a10.553,10.553,0,0,0-13.417,8.865,10.007,10.007,0,0,0,.73,5.456,14.659,14.659,0,0,1-.73-9.5c1.067-4.563,4.215-8.462,8.843-9.161a10.558,10.558,0,0,1,11,5.568,2.662,2.662,0,0,0,4.269.632,31.765,31.765,0,0,0,3.66-4.632c.067-.085.95-1.523,1.286-2.146a31.66,31.66,0,0,0,2.822-6.971c.108-.4.2-.784.273-1.151a2.7,2.7,0,0,1,.2.349c.027.049.049.1.072.152a2.592,2.592,0,0,1,.121.372c.013.054.027.107.036.166a.189.189,0,0,0,.009.049A2.726,2.726,0,0,1,148.246,573.155Z" transform="translate(-100.502 -571.215)"/><path class="b" d="M409.126,647.982a20.507,20.507,0,0,1-24.81,14.539c-5.358-1.383-7.918-6.883-6.992-11.9a9.555,9.555,0,0,0,6.992,7.852,20.507,20.507,0,0,0,24.81-14.539,18.494,18.494,0,0,0,.5-2.962A20.137,20.137,0,0,1,409.126,647.982Z" transform="translate(-324.296 -630.819)"/></g></g><g transform="translate(112.304 331.51)"><path class="d" d="M689.777,623.023v-16.33a2.559,2.559,0,0,1,2.559-2.559h0a2.559,2.559,0,0,1,2.559,2.559v16.33a2.559,2.559,0,0,1-2.559,2.559h0A2.559,2.559,0,0,1,689.777,623.023Z" transform="translate(-689.777 -603.409)"/><path class="d" d="M1097.834,610.769a12.025,12.025,0,0,1,.821-4.46,11.176,11.176,0,0,1,2.419-3.721,10.367,10.367,0,0,1,3.505-2.4,10.824,10.824,0,0,1,11.937,2.433,10.591,10.591,0,0,1,2.374,3.662,12.307,12.307,0,0,1,.806,4.49,12.5,12.5,0,0,1-.562,3.787,10.643,10.643,0,0,1-1.672,3.24,10.945,10.945,0,0,1-3.854,3.238,10.733,10.733,0,0,1-9.009.311,10.709,10.709,0,0,1-3.528-2.426,11.218,11.218,0,0,1-2.419-3.7A11.922,11.922,0,0,1,1097.834,610.769Zm5.267,0a6.892,6.892,0,0,0,1.634,4.681,5.263,5.263,0,0,0,8.069.007,7.6,7.6,0,0,0,0-9.4,5.257,5.257,0,0,0-8.069,0A6.936,6.936,0,0,0,1103.1,610.769Z" transform="translate(-1038.46 -599.32)"/><path class="d" d="M1289.436,602.78a2.216,2.216,0,0,1-3.177,1.771l-.029-.014a6.748,6.748,0,0,0-3-.7,5.786,5.786,0,0,0-4.452,1.878,6.84,6.84,0,0,0-1.731,4.824,6.679,6.679,0,0,0,1.717,4.77,5.85,5.85,0,0,0,4.467,1.826,8.329,8.329,0,0,0,3.248-.68l.032-.014a2.1,2.1,0,0,1,2.968,2.018l-.031.535a2.1,2.1,0,0,1-1.121,1.745,11.046,11.046,0,0,1-1.953.789,11.811,11.811,0,0,1-3.4.487,11.186,11.186,0,0,1-3.631-.591,10.734,10.734,0,0,1-3.2-1.746,10.874,10.874,0,0,1-3.172-3.97,11.867,11.867,0,0,1-1.1-5.111,12.18,12.18,0,0,1,.814-4.469,10.857,10.857,0,0,1,5.991-6.131,11.215,11.215,0,0,1,4.335-.85,11.759,11.759,0,0,1,3.447.5,11.141,11.141,0,0,1,1.871.767,2.149,2.149,0,0,1,1.128,2.122Z" transform="translate(-1187.176 -599.153)"/><path class="d" d="M1429.252,608.136l-4.335,10.415-.789,1.77a2.278,2.278,0,0,1-2.081,1.351h0a2.278,2.278,0,0,1-2.042-3.288l9.306-18.826h.325l9.114,18.844a2.278,2.278,0,0,1-2.051,3.271h-.231a2.279,2.279,0,0,1-2.089-1.368l-.764-1.753Z" transform="translate(-1313.55 -599.499)"/><path class="d" d="M1580.515,625.582V606.693a2.559,2.559,0,0,1,2.559-2.559h0a2.559,2.559,0,0,1,2.559,2.559v14.289h6.058a2.3,2.3,0,0,1,2.3,2.3h0a2.3,2.3,0,0,1-2.3,2.3Z" transform="translate(-1450.909 -603.409)"/><path class="d" d="M1698.745,625.582V606.693a2.559,2.559,0,0,1,2.559-2.559h0a2.559,2.559,0,0,1,2.559,2.559v14.289h6.058a2.3,2.3,0,0,1,2.3,2.3h0a2.3,2.3,0,0,1-2.3,2.3Z" transform="translate(-1551.936 -603.409)"/><path class="d" d="M1809.511,619.214a2.253,2.253,0,0,1,3.042-2.261l.028.01a8.089,8.089,0,0,0,2.7.487,3.565,3.565,0,0,0,2.137-.584,1.783,1.783,0,0,0,.807-1.5q0-1.317-2.871-2.958l-.71-.414-1.45-.814a9.107,9.107,0,0,1-3.135-2.707,5.964,5.964,0,0,1-1.021-3.417,5.316,5.316,0,0,1,1.953-4.245,7.523,7.523,0,0,1,5.043-1.657,12.566,12.566,0,0,1,2.471.266q.693.138,1.468.357a2.072,2.072,0,0,1,1.49,2h0a2.146,2.146,0,0,1-2.916,2l-.028-.011a6.835,6.835,0,0,0-2.365-.534,2.775,2.775,0,0,0-1.7.466,1.5,1.5,0,0,0-.621,1.266,1.7,1.7,0,0,0,.37,1.05,3.377,3.377,0,0,0,1.109.887l2.516,1.391a13.418,13.418,0,0,1,4.238,3.224,5.763,5.763,0,0,1,1.087,3.506,6.5,6.5,0,0,1-2.137,5.067,8.146,8.146,0,0,1-5.674,1.93,14.967,14.967,0,0,1-2.6-.25q-.739-.132-1.556-.343a2.232,2.232,0,0,1-1.653-2Z" transform="translate(-1646.18 -599.153)"/><path class="d" d="M783.651,604.134a2.559,2.559,0,0,0-2.559,2.559v10.689l-8.727-12.063v.012a2.555,2.555,0,0,0-4.719,1.362v16.33a2.559,2.559,0,0,0,5.118,0v-10.8l8.727,12.165h0a2.555,2.555,0,0,0,4.719-1.362v-16.33A2.559,2.559,0,0,0,783.651,604.134Z" transform="translate(-756.316 -603.409)"/><path class="d" d="M953.322,604.134a2.559,2.559,0,0,0-2.559,2.559v10.689l-8.727-12.063v.012a2.555,2.555,0,0,0-4.718,1.362v16.33a2.559,2.559,0,0,0,5.118,0v-10.8l8.727,12.165h0a2.555,2.555,0,0,0,4.718-1.362v-16.33A2.559,2.559,0,0,0,953.322,604.134Z" transform="translate(-901.299 -603.409)"/></g></g></g></svg>